<svg width="99" height="99" viewBox="0 0 99 99" fill="none" xmlns="http://www.w3.org/2000/svg">
<g filter="url(#filter0_d_165_46)">
<rect x="10" y="2" width="79" height="79" rx="39.5" fill="white" shape-rendering="crispEdges"/>
<g clip-path="url(#clip0_165_46)">
<path d="M30.3487 55.5125C30.7222 55.8875 31.0084 56.3402 31.1869 56.8384C31.3654 57.3367 31.4319 57.8681 31.3815 58.395C31.1285 60.8332 30.6491 63.2427 29.9492 65.592C34.9692 64.4297 38.0351 63.0838 39.4277 62.3785C40.2176 61.9785 41.1273 61.8836 41.9827 62.1122C44.4348 62.766 46.9622 63.095 49.5 63.091C63.8797 63.091 74.6896 52.99 74.6896 41.4999C74.6896 30.0135 63.8797 19.9088 49.5 19.9088C35.1203 19.9088 24.3104 30.0135 24.3104 41.4999C24.3104 46.7825 26.5307 51.6837 30.3487 55.5125ZM28.5746 69.5648C27.722 69.7338 26.8666 69.8885 26.0089 70.029C25.2892 70.1441 24.7422 69.3956 25.0265 68.7263C25.346 67.9728 25.6389 67.2082 25.9045 66.434L25.9153 66.3981C26.8077 63.8071 27.5346 60.8276 27.8009 58.0531C23.3856 53.6269 20.7119 47.8333 20.7119 41.4999C20.7119 27.5881 33.6017 16.3103 49.5 16.3103C65.3982 16.3103 78.2881 27.5881 78.2881 41.4999C78.2881 55.4118 65.3982 66.6895 49.5 66.6895C46.6487 66.6934 43.8092 66.3232 41.0543 65.5884C39.183 66.5348 35.1563 68.2585 28.5746 69.5648Z" fill="#0051B4"/>
<path d="M35.106 32.5036C35.106 32.0264 35.2955 31.5688 35.6329 31.2313C35.9704 30.8939 36.428 30.7043 36.9052 30.7043H62.0948C62.572 30.7043 63.0297 30.8939 63.3671 31.2313C63.7045 31.5688 63.8941 32.0264 63.8941 32.5036C63.8941 32.9808 63.7045 33.4384 63.3671 33.7759C63.0297 34.1133 62.572 34.3029 62.0948 34.3029H36.9052C36.428 34.3029 35.9704 34.1133 35.6329 33.7759C35.2955 33.4384 35.106 32.9808 35.106 32.5036ZM35.106 41.4999C35.106 41.0227 35.2955 40.5651 35.6329 40.2276C35.9704 39.8902 36.428 39.7006 36.9052 39.7006H62.0948C62.572 39.7006 63.0297 39.8902 63.3671 40.2276C63.7045 40.5651 63.8941 41.0227 63.8941 41.4999C63.8941 41.9771 63.7045 42.4347 63.3671 42.7722C63.0297 43.1096 62.572 43.2992 62.0948 43.2992H36.9052C36.428 43.2992 35.9704 43.1096 35.6329 42.7722C35.2955 42.4347 35.106 41.9771 35.106 41.4999ZM35.106 50.4962C35.106 50.019 35.2955 49.5613 35.6329 49.2239C35.9704 48.8865 36.428 48.6969 36.9052 48.6969H51.2993C51.7765 48.6969 52.2341 48.8865 52.5716 49.2239C52.909 49.5613 53.0985 50.019 53.0985 50.4962C53.0985 50.9734 52.909 51.431 52.5716 51.7685C52.2341 52.1059 51.7765 52.2954 51.2993 52.2954H36.9052C36.428 52.2954 35.9704 52.1059 35.6329 51.7685C35.2955 51.431 35.106 50.9734 35.106 50.4962Z" fill="#0051B4"/>
</g>
</g>
<defs>
<filter id="filter0_d_165_46" x="0" y="0" width="99" height="99" filterUnits="userSpaceOnUse" color-interpolation-filters="sRGB">
<feFlood flood-opacity="0" result="BackgroundImageFix"/>
<feColorMatrix in="SourceAlpha" type="matrix" values="0 0 0 0 0 0 0 0 0 0 0 0 0 0 0 0 0 0 127 0" result="hardAlpha"/>
<feOffset dy="8"/>
<feGaussianBlur stdDeviation="5"/>
<feComposite in2="hardAlpha" operator="out"/>
<feColorMatrix type="matrix" values="0 0 0 0 0 0 0 0 0 0 0 0 0 0 0 0 0 0 0.2 0"/>
<feBlend mode="normal" in2="BackgroundImageFix" result="effect1_dropShadow_165_46"/>
<feBlend mode="normal" in="SourceGraphic" in2="effect1_dropShadow_165_46" result="shape"/>
</filter>
<clipPath id="clip0_165_46">
<rect width="57.5763" height="57.5763" fill="white" transform="translate(20.7119 12.7119)"/>
</clipPath>
</defs>
</svg>
