<svg width="192" height="192" viewBox="0 0 192 192" fill="none" xmlns="http://www.w3.org/2000/svg">
<rect width="192" height="192" fill="white"/>
<rect x="119.079" y="71.6569" width="3.80054" height="23.8092" transform="rotate(-90 119.079 71.6569)" fill="#0051B4"/>
<rect x="47.1763" y="71.6569" width="3.80054" height="25.6257" transform="rotate(-90 47.1763 71.6569)" fill="#0051B4"/>
<rect x="83.687" y="85.3944" width="6.22674" height="23.8081" transform="rotate(-90 83.687 85.3944)" fill="#0051B4"/>
<path fill-rule="evenodd" clip-rule="evenodd" d="M109.692 44.9087C108.377 45.5794 107.122 46.3516 105.938 47.2148V122.464L108.253 121.282L108.178 121.136L108.179 121.135L108.251 121.277L108.254 121.282L108.254 121.281L108.256 121.281L108.259 121.279L108.265 121.276L108.277 121.27L108.305 121.256L108.371 121.222C108.42 121.197 108.478 121.167 108.545 121.132C108.679 121.062 108.849 120.973 109.052 120.865C109.268 120.751 109.481 120.634 109.692 120.515V44.9087ZM115.919 116.881C116.167 116.713 116.411 116.541 116.652 116.367C117.374 115.983 118.085 115.565 118.783 115.111C119.106 114.901 119.434 114.686 119.766 114.466V42C118.455 42.1196 117.171 42.33 115.919 42.6248V116.881ZM71.4161 42C72.6947 42.1167 73.9484 42.3198 75.1712 42.6034V116.813C74.9134 116.652 74.651 116.488 74.3843 116.319C74.0381 116.1 73.6983 115.875 73.3651 115.644C73.0158 115.436 72.6694 115.219 72.3262 114.994C72.0269 114.797 71.7233 114.596 71.4161 114.391V42ZM81.9415 120.76C81.7587 120.662 81.5775 120.561 81.3979 120.459V44.8623C82.7464 45.5437 84.0319 46.3316 85.2435 47.2149V122.489L82.7248 121.177L82.9536 120.738L82.9531 120.738C82.7243 121.177 82.7242 121.177 82.7241 121.177L82.7234 121.176L82.7221 121.176L82.7193 121.174L82.7136 121.171L82.7015 121.165L82.6747 121.151L82.6104 121.117C82.5629 121.092 82.5061 121.062 82.4405 121.028C82.3091 120.958 82.1419 120.869 81.9415 120.76ZM142.888 50.9453V92.6932C143.256 92.1709 143.607 91.6325 143.943 91.0782C145.142 89.0986 146.314 86.8496 147.313 84.3439C148.098 82.3749 148.643 80.3696 148.962 78.3604C149.614 76.2168 150.017 73.9592 150.134 71.6197C150.165 70.999 150.182 70.3709 150.182 69.736C150.182 62.4947 147.418 55.8987 142.888 50.9453ZM41 69.736C41 62.614 43.6731 56.1164 48.0708 51.1916V92.1559C47.8646 91.7991 47.6671 91.4391 47.4783 91.0764C46.5823 89.816 45.7795 88.4638 45.0842 87.0247C43.9257 84.6267 42.8539 81.8619 42.098 78.7658C41.8177 77.6179 41.613 76.4692 41.4807 75.325C41.2604 74.1344 41.1153 72.9159 41.0506 71.6741C41.0173 71.0361 41 70.3899 41 69.736Z" fill="#0051B4"/>
</svg>
