<svg width="110" height="81" viewBox="0 0 110 81" fill="none" xmlns="http://www.w3.org/2000/svg">
<rect x="78.0786" y="29.6569" width="3.80054" height="23.8092" transform="rotate(-90 78.0786 29.6569)" fill="#0051B4"/>
<rect x="6.17627" y="29.6569" width="3.80054" height="25.6257" transform="rotate(-90 6.17627 29.6569)" fill="#0051B4"/>
<rect x="42.687" y="43.3944" width="6.22674" height="23.8081" transform="rotate(-90 42.687 43.3944)" fill="#0051B4"/>
<path fill-rule="evenodd" clip-rule="evenodd" d="M68.6922 2.90871C67.3771 3.57943 66.1223 4.35157 64.9382 5.21482V80.4637L67.2531 79.2822L67.1782 79.1355L67.1788 79.1353L67.2511 79.2768L67.2538 79.2818L67.2545 79.2814L67.2559 79.2807L67.2588 79.2793L67.2647 79.2762L67.2772 79.2698L67.3049 79.2557L67.3709 79.2217C67.4196 79.1966 67.4777 79.1666 67.5447 79.1318C67.6787 79.0621 67.8489 78.973 68.0525 78.8651C68.2678 78.751 68.4811 78.6344 68.6922 78.5155V2.90871ZM74.9189 74.8808C75.1669 74.7129 75.4113 74.5415 75.6523 74.3668C76.3739 73.9831 77.0849 73.5646 77.7832 73.1108C78.106 72.9009 78.4337 72.6859 78.7657 72.4659V0C77.4551 0.119595 76.1707 0.329986 74.9189 0.624829V74.8808ZM30.4161 1.36608e-05C31.6947 0.116699 32.9484 0.319803 34.1712 0.603438V74.8125C33.9134 74.6521 33.651 74.4876 33.3843 74.3192C33.0381 74.1005 32.6983 73.8754 32.3651 73.6442C32.0158 73.4358 31.6694 73.219 31.3262 72.9936C31.0269 72.797 30.7233 72.5959 30.4161 72.3905V1.36608e-05ZM40.9415 78.7605C40.7587 78.6618 40.5775 78.5614 40.3979 78.4593V2.86225C41.7464 3.54373 43.0319 4.33163 44.2435 5.21493V80.489L41.7248 79.1771L41.9536 78.7379L41.9531 78.7377C41.7243 79.1769 41.7242 79.1768 41.7241 79.1768L41.7234 79.1764L41.7221 79.1757L41.7193 79.1743L41.7136 79.1713L41.7015 79.165L41.6747 79.151L41.6104 79.1173C41.5629 79.0923 41.5061 79.0624 41.4405 79.0276C41.3091 78.958 41.1419 78.8687 40.9415 78.7605ZM101.888 8.94533V50.6932C102.256 50.1709 102.607 49.6325 102.943 49.0782C104.142 47.0986 105.314 44.8496 106.313 42.3439C107.098 40.3749 107.643 38.3696 107.962 36.3604C108.614 34.2168 109.017 31.9592 109.134 29.6197C109.165 28.999 109.182 28.3709 109.182 27.736C109.182 20.4947 106.418 13.8987 101.888 8.94533ZM0 27.736C0 20.614 2.67312 14.1164 7.07077 9.19161V50.1559C6.86456 49.7991 6.66709 49.4391 6.47832 49.0764C5.58229 47.816 4.77948 46.4638 4.08421 45.0247C2.92566 42.6267 1.85388 39.8619 1.09797 36.7658C0.817699 35.6179 0.612989 34.4692 0.480661 33.325C0.260445 32.1344 0.115311 30.9159 0.0505638 29.6741C0.0173035 29.0361 0 28.3899 0 27.736Z" fill="#0051B4"/>
</svg>
