<svg width="192" height="192" viewBox="0 0 192 192" fill="none" xmlns="http://www.w3.org/2000/svg">
<rect width="192" height="192" fill="white"/>
<rect x="53.4561" y="91.7077" width="1.6285" height="10.2021" transform="rotate(-90 53.4561 91.7077)" fill="#0051B4"/>
<rect x="22.6462" y="91.7077" width="1.6285" height="10.9804" transform="rotate(-90 22.6462 91.7077)" fill="#0051B4"/>
<rect x="38.291" y="97.5941" width="2.66811" height="10.2016" transform="rotate(-90 38.291 97.5941)" fill="#0051B4"/>
<path fill-rule="evenodd" clip-rule="evenodd" d="M49.4342 80.2463C48.8706 80.5337 48.3329 80.8646 47.8255 81.2345V113.478L48.8174 112.972L48.7854 112.909L48.7856 112.909C48.8177 112.972 48.8177 112.972 48.8177 112.972L48.818 112.971L48.8186 112.971L48.8199 112.971L48.8224 112.969L48.8278 112.966L48.8396 112.96L48.8679 112.946L48.9424 112.907C48.9998 112.877 49.0727 112.839 49.16 112.793C49.2523 112.744 49.3437 112.694 49.4342 112.643V80.2463ZM52.1023 111.086C52.2085 111.014 52.3132 110.94 52.4164 110.866C52.7256 110.701 53.0303 110.522 53.3295 110.327C53.4678 110.238 53.6081 110.145 53.7503 110.051V79C53.1888 79.0513 52.6386 79.1414 52.1023 79.2677V111.086ZM33.0331 79C33.5809 79.05 34.118 79.137 34.6418 79.2585V111.056C34.5314 110.988 34.4191 110.917 34.3049 110.845C34.1566 110.751 34.011 110.655 33.8682 110.556C33.7185 110.467 33.5701 110.374 33.423 110.277C33.2948 110.193 33.1648 110.107 33.0331 110.019V79ZM37.5431 112.748C37.4647 112.706 37.387 112.663 37.3099 112.619V80.2263C37.8878 80.5183 38.4387 80.856 38.9579 81.2345V113.489L37.8787 112.927L37.9768 112.739L37.9766 112.738L37.8785 112.927L37.8782 112.926L37.8776 112.926L37.8764 112.926L37.874 112.924L37.8688 112.922L37.8573 112.916L37.8297 112.901L37.7569 112.863C37.7006 112.833 37.629 112.795 37.5431 112.748ZM63.6582 82.8329V100.722C63.8156 100.498 63.9665 100.267 64.1104 100.03C64.6241 99.1814 65.1261 98.2177 65.5543 97.144C65.8908 96.3003 66.1243 95.4411 66.2607 94.5801C66.5404 93.6616 66.7129 92.6943 66.7632 91.6918C66.7766 91.4258 66.7835 91.1567 66.7835 90.8847C66.7835 87.7817 65.5993 84.9554 63.6582 82.8329ZM20 90.8847C20 87.8331 21.1453 85.0489 23.0296 82.9387V100.491C22.9413 100.338 22.8567 100.184 22.7759 100.029C22.392 99.4888 22.048 98.9094 21.75 98.2927C21.2536 97.2652 20.7944 96.0805 20.4705 94.7538C20.3504 94.262 20.2627 93.7698 20.206 93.2795C20.1116 92.7693 20.0494 92.2472 20.0217 91.7151C20.0074 91.4417 20 91.1648 20 90.8847Z" fill="#0051B4"/>
<path d="M84.7453 95.0181V108.862H82.9379V102.585H75.887V108.862H74.0796V95.0181H75.887V101.096H82.9379V95.0181H84.7453ZM97.7622 103.002C97.7622 103.347 97.7423 103.711 97.7026 104.095H89.0032C89.0694 105.167 89.4336 106.008 90.0956 106.617C90.7709 107.213 91.5852 107.511 92.5386 107.511C93.3198 107.511 93.9686 107.332 94.485 106.975C95.0146 106.604 95.3854 106.114 95.5972 105.505H97.5437C97.2524 106.551 96.6698 107.405 95.7959 108.067C94.922 108.716 93.8362 109.04 92.5386 109.04C91.5058 109.04 90.5789 108.809 89.758 108.345C88.9503 107.882 88.3147 107.226 87.8513 106.379C87.3878 105.518 87.1561 104.525 87.1561 103.4C87.1561 102.274 87.3812 101.288 87.8314 100.44C88.2816 99.5929 88.9105 98.9441 89.7182 98.4939C90.5392 98.0305 91.4793 97.7987 92.5386 97.7987C93.5714 97.7987 94.485 98.0238 95.2795 98.474C96.0739 98.9242 96.683 99.5466 97.1067 100.341C97.5437 101.122 97.7622 102.009 97.7622 103.002ZM95.8952 102.625C95.8952 101.937 95.7429 101.347 95.4384 100.857C95.1338 100.354 94.7167 99.9769 94.1871 99.7253C93.6707 99.4605 93.0947 99.3281 92.4591 99.3281C91.5455 99.3281 90.7643 99.6194 90.1155 100.202C89.4799 100.785 89.1158 101.592 89.0231 102.625H95.8952ZM99.4726 103.38C99.4726 102.268 99.6977 101.294 100.148 100.46C100.598 99.6128 101.214 98.9573 101.995 98.4939C102.789 98.0305 103.67 97.7987 104.637 97.7987C105.59 97.7987 106.417 98.004 107.119 98.4144C107.821 98.8249 108.344 99.3413 108.688 99.9636V97.9775H110.516V108.862H108.688V106.836C108.331 107.471 107.795 108.001 107.08 108.425C106.378 108.835 105.557 109.04 104.617 109.04C103.65 109.04 102.776 108.802 101.995 108.325C101.214 107.849 100.598 107.18 100.148 106.319C99.6977 105.459 99.4726 104.479 99.4726 103.38ZM108.688 103.4C108.688 102.579 108.523 101.864 108.192 101.255C107.861 100.646 107.411 100.182 106.841 99.8643C106.285 99.5333 105.669 99.3678 104.994 99.3678C104.319 99.3678 103.703 99.5267 103.147 99.8445C102.591 100.162 102.147 100.626 101.816 101.235C101.485 101.844 101.32 102.559 101.32 103.38C101.32 104.214 101.485 104.942 101.816 105.565C102.147 106.174 102.591 106.644 103.147 106.975C103.703 107.293 104.319 107.451 104.994 107.451C105.669 107.451 106.285 107.293 106.841 106.975C107.411 106.644 107.861 106.174 108.192 105.565C108.523 104.942 108.688 104.221 108.688 103.4ZM115.377 94.1641V108.862H113.57V94.1641H115.377ZM120.662 99.4671V105.882C120.662 106.412 120.775 106.789 121 107.014C121.225 107.226 121.616 107.332 122.172 107.332H123.503V108.862H121.874C120.868 108.862 120.113 108.63 119.61 108.166C119.106 107.703 118.855 106.942 118.855 105.882V99.4671H117.445V97.9775H118.855V95.2366H120.662V97.9775H123.503V99.4671H120.662ZM131.095 97.7789C131.916 97.7789 132.657 97.9576 133.319 98.3151C133.981 98.6594 134.498 99.1824 134.868 99.8842C135.252 100.586 135.444 101.44 135.444 102.446V108.862H133.657V102.705C133.657 101.619 133.385 100.791 132.843 100.222C132.3 99.6392 131.558 99.3479 130.618 99.3479C129.665 99.3479 128.903 99.6459 128.334 100.242C127.778 100.838 127.5 101.705 127.5 102.844V108.862H125.692V94.1641H127.5V99.5267C127.857 98.9706 128.347 98.5402 128.97 98.2357C129.605 97.9312 130.314 97.7789 131.095 97.7789ZM139.33 96.2098C138.986 96.2098 138.695 96.0907 138.456 95.8523C138.218 95.614 138.099 95.3227 138.099 94.9784C138.099 94.6341 138.218 94.3428 138.456 94.1045C138.695 93.8662 138.986 93.747 139.33 93.747C139.661 93.747 139.939 93.8662 140.164 94.1045C140.403 94.3428 140.522 94.6341 140.522 94.9784C140.522 95.3227 140.403 95.614 140.164 95.8523C139.939 96.0907 139.661 96.2098 139.33 96.2098ZM140.204 97.9775V108.862H138.397V97.9775H140.204ZM142.609 103.4C142.609 102.274 142.834 101.294 143.285 100.46C143.735 99.6128 144.357 98.9573 145.152 98.4939C145.959 98.0305 146.88 97.7987 147.912 97.7987C149.25 97.7987 150.349 98.1231 151.209 98.772C152.083 99.4208 152.659 100.321 152.937 101.473H150.991C150.805 100.811 150.441 100.288 149.898 99.9041C149.369 99.5201 148.707 99.3281 147.912 99.3281C146.88 99.3281 146.045 99.6856 145.41 100.401C144.774 101.102 144.456 102.102 144.456 103.4C144.456 104.711 144.774 105.723 145.41 106.438C146.045 107.154 146.88 107.511 147.912 107.511C148.707 107.511 149.369 107.326 149.898 106.955C150.428 106.584 150.792 106.055 150.991 105.366H152.937C152.646 106.478 152.063 107.372 151.189 108.047C150.316 108.709 149.223 109.04 147.912 109.04C146.88 109.04 145.959 108.809 145.152 108.345C144.357 107.882 143.735 107.226 143.285 106.379C142.834 105.531 142.609 104.538 142.609 103.4ZM154.674 103.38C154.674 102.268 154.899 101.294 155.349 100.46C155.799 99.6128 156.415 98.9573 157.196 98.4939C157.99 98.0305 158.871 97.7987 159.838 97.7987C160.791 97.7987 161.619 98.004 162.32 98.4144C163.022 98.8249 163.545 99.3413 163.889 99.9636V97.9775H165.717V108.862H163.889V106.836C163.532 107.471 162.996 108.001 162.281 108.425C161.579 108.835 160.758 109.04 159.818 109.04C158.851 109.04 157.977 108.802 157.196 108.325C156.415 107.849 155.799 107.18 155.349 106.319C154.899 105.459 154.674 104.479 154.674 103.38ZM163.889 103.4C163.889 102.579 163.724 101.864 163.393 101.255C163.062 100.646 162.612 100.182 162.042 99.8643C161.486 99.5333 160.87 99.3678 160.195 99.3678C159.52 99.3678 158.904 99.5267 158.348 99.8445C157.792 100.162 157.348 100.626 157.017 101.235C156.686 101.844 156.521 102.559 156.521 103.38C156.521 104.214 156.686 104.942 157.017 105.565C157.348 106.174 157.792 106.644 158.348 106.975C158.904 107.293 159.52 107.451 160.195 107.451C160.87 107.451 161.486 107.293 162.042 106.975C162.612 106.644 163.062 106.174 163.393 105.565C163.724 104.942 163.889 104.221 163.889 103.4ZM170.578 94.1641V108.862H168.771V94.1641H170.578Z" fill="#0051B4"/>
</svg>
